<svg width="627.72" height="297.18" version="1.1" viewBox="0 0 588.48541 278.6105" xmlns="http://www.w3.org/2000/svg">
 <g transform="translate(-128.22 -628.15)">
  <g transform="translate(475.63 -1332.8)" fill="#fefefe">
   <path d="m-318.49 2191v4.771c-1.4259-.7311-2.9065-1.2795-4.442-1.6452-1.5355-.3655-3.1259-.5483-4.771-.5484-2.5044 1e-4-4.3872.3839-5.6485 1.1517-1.243.7677-1.8646 1.9194-1.8646 3.4549 0 1.1699.44785 2.093 1.3436 2.7694.8957.658 2.6963 1.2887 5.4017 1.8919l1.7274.3839c3.5828.7678 6.1237 1.8554 7.6227 3.2629 1.5172 1.3893 2.2758 3.3361 2.2758 5.8405-3e-5 2.8516-1.1334 5.1092-3.4 6.7726-2.2484 1.6635-5.3469 2.4952-9.2953 2.4952-1.6452 0-3.3635-.1645-5.1549-.4935-1.7732-.3108-3.6468-.7861-5.621-1.4259v-5.2097c1.8645.9688 3.7017 1.7 5.5114 2.1936 1.8097.4753 3.6011.7129 5.3743.7129 2.3764 0 4.2044-.4022 5.484-1.2065 1.2796-.8226 1.9194-1.9742 1.9194-3.4549-2e-5-1.3709-.46616-2.422-1.3984-3.1532-.91401-.7312-2.9339-1.435-6.0598-2.1114l-1.7549-.4113c-3.1259-.658-5.3834-1.6634-6.7727-3.0161-1.3893-1.371-2.0839-3.2447-2.0839-5.6211-1e-5-2.8882 1.0237-5.1183 3.071-6.6904 2.0473-1.572 4.9538-2.3581 8.7195-2.3581 1.8645 0 3.6194.1371 5.2646.4113 1.6452.2742 3.1624.6855 4.5517 1.2339"/>
   <path d="m-305.94 2181.4v8.7195h10.392v3.9211h-10.392v16.671c-1e-5 2.5043.33816 4.1129 1.0145 4.8258.69462.713 2.093 1.0694 4.1952 1.0694h5.1823v4.2227h-5.1823c-3.8936 0-6.5808-.7221-8.0614-2.1662-1.4807-1.4624-2.221-4.113-2.221-7.9517v-16.671h-3.7017v-3.9211h3.7017v-8.7195h5.0727"/>
   <path d="m-290.83 2208.7v-18.591h5.0452v18.399c-1e-5 2.9065.56666 5.0909 1.7 6.5533 1.1333 1.4441 2.8334 2.1662 5.1001 2.1662 2.7237 0 4.8716-.8683 6.4436-2.6049 1.5903-1.7366 2.3855-4.1038 2.3855-7.1017v-17.412h5.0452v30.71h-5.0452v-4.7162c-1.2248 1.8645-2.6506 3.2538-4.2775 4.1678-1.6086.8957-3.4823 1.3435-5.621 1.3435-3.528 0-6.206-1.0968-8.034-3.2903-1.828-2.1936-2.742-5.4017-2.742-9.6244m12.695-19.331"/>
   <path d="m-251.82 2181.4v8.7195h10.392v3.9211h-10.392v16.671c-1e-5 2.5043.33817 4.1129 1.0145 4.8258.69463.713 2.093 1.0694 4.1952 1.0694h5.1823v4.2227h-5.1823c-3.8936 0-6.5808-.7221-8.0614-2.1662-1.4807-1.4624-2.221-4.113-2.221-7.9517v-16.671h-3.7017v-3.9211h3.7017v-8.7195h5.0726"/>
   <path d="m-229.06 2181.4v8.7195h10.392v3.9211h-10.392v16.671c-1e-5 2.5043.33816 4.1129 1.0145 4.8258.69462.713 2.093 1.0694 4.1952 1.0694h5.1823v4.2227h-5.1823c-3.8936 0-6.5808-.7221-8.0614-2.1662-1.4807-1.4624-2.221-4.113-2.221-7.9517v-16.671h-3.7017v-3.9211h3.7017v-8.7195h5.0727"/>
   <path d="m-193.23 2205.1c-3e-5-3.6559-.75864-6.4893-2.2758-8.5001-1.499-2.0107-3.6103-3.0161-6.334-3.0162-2.7054 1e-4-4.8168 1.0055-6.334 3.0162-1.499 2.0108-2.2484 4.8442-2.2484 8.5001-1e-5 3.6377.74946 6.462 2.2484 8.4727 1.5172 2.0108 3.6285 3.0162 6.334 3.0162 2.7237 0 4.835-1.0054 6.334-3.0162 1.5172-2.0107 2.2758-4.835 2.2758-8.4727m5.0452 11.9c-3e-5 5.228-1.1608 9.1125-3.4823 11.653-2.3216 2.5592-5.877 3.8388-10.666 3.8388-1.7732 0-3.4458-.1371-5.0178-.4113-1.5721-.256-3.0984-.6581-4.5791-1.2065v-4.9081c1.4807.8043 2.943 1.3984 4.3872 1.7823 1.4441.3838 2.9156.5758 4.4146.5758 3.3086 0 5.7856-.8683 7.4308-2.6049 1.6452-1.7183 2.4678-4.3232 2.4678-7.8146v-2.4952c-1.042 1.8097-2.3764 3.1624-4.0033 4.0581-1.6269.8957-3.5737 1.3436-5.8404 1.3436-3.7657 0-6.8001-1.435-9.1034-4.3049-2.3033-2.87-3.4549-6.6722-3.4549-11.407-1e-5-4.7527 1.1516-8.564 3.4549-11.434 2.3032-2.8699 5.3377-4.3049 9.1034-4.3049 2.2667 0 4.2135.4479 5.8404 1.3436 1.6269.8957 2.9613 2.2484 4.0033 4.0581v-4.6614h5.0452v26.899"/>
   <path d="m-167.4 2205.3c-4.0764 0-6.9006.4662-8.4727 1.3984-1.5721.9323-2.3581 2.5227-2.3581 4.7711 0 1.7914.58495 3.2172 1.7549 4.2775 1.1882 1.0419 2.7968 1.5629 4.8259 1.5629 2.7968 0 5.0361-.9871 6.7178-2.9613 1.7-1.9925 2.55-4.634 2.55-7.9244v-1.1242h-5.0178m10.063-2.0839v17.521h-5.0452v-4.6614c-1.1516 1.8645-2.5866 3.2447-4.3049 4.1404-1.7183.8774-3.8205 1.3161-6.3065 1.3161-3.1441 0-5.6485-.8774-7.513-2.6323-1.8463-1.7731-2.7694-4.1403-2.7694-7.1017 0-3.4549 1.1516-6.0597 3.4549-7.8146 2.3215-1.7549 5.7764-2.6323 10.365-2.6323h7.0743v-.4936c-2e-5-2.3215-.76777-4.1129-2.3033-5.3742-1.5172-1.2796-3.656-1.9194-6.4162-1.9194-1.7549 0-3.464.2102-5.1275.6306-1.6635.4205-3.263 1.0511-4.7985 1.892v-4.6614c1.8463-.7128 3.6377-1.243 5.3743-1.5903 1.7366-.3656 3.4275-.5484 5.0727-.5484 4.442 0 7.7598 1.1517 9.9534 3.4549 2.1936 2.3033 3.2903 5.7947 3.2904 10.474"/>
   <path d="m-134.12 2194.8c-.56669-.329-1.1882-.5666-1.8645-.7129-.6581-.1645-1.3893-.2467-2.1936-.2468-2.8517 1e-4-5.0452.9323-6.5807 2.7969-1.5172 1.8462-2.2758 4.506-2.2758 7.9791v16.178h-5.0727v-30.71h5.0727v4.7711c1.0602-1.8645 2.4403-3.2447 4.1404-4.1404 1.7-.914 3.7656-1.371 6.1969-1.371.34729 0 .73117.027 1.1516.082.42041.037.88654.1005 1.3984.1919l.0274 5.1823"/>
   <path d="m-121.64 2181.4v8.7195h10.392v3.9211h-10.392v16.671c-1e-5 2.5043.33816 4.1129 1.0145 4.8258.69462.713 2.093 1.0694 4.1952 1.0694h5.1823v4.2227h-5.1823c-3.8936 0-6.5808-.7221-8.0614-2.1662-1.4807-1.4624-2.221-4.113-2.221-7.9517v-16.671h-3.7017v-3.9211h3.7017v-8.7195h5.0727"/>
   <path d="m-61.184 2202.2v18.536h-5.0452v-18.371c-2.6e-5-2.9065-.5667-5.0818-1.7-6.5259-1.1334-1.4441-2.8334-2.1661-5.1001-2.1661-2.7237 0-4.8716.8683-6.4436 2.6048-1.5721 1.7366-2.3581 4.1039-2.3581 7.1018v17.357h-5.0727v-42.665h5.0727v16.726c1.2065-1.8463 2.6231-3.2264 4.2501-4.1404 1.6452-.914 3.5371-1.371 5.6759-1.371 3.528 0 6.1968 1.0968 8.0066 3.2904 1.8097 2.1753 2.7145 5.3834 2.7146 9.6243"/>
   <path d="m-40.681 2205.3c-4.0764 0-6.9007.4662-8.4727 1.3984-1.5721.9323-2.3581 2.5227-2.3581 4.7711-8e-6 1.7914.58495 3.2172 1.7549 4.2775 1.1882 1.0419 2.7968 1.5629 4.8259 1.5629 2.7968 0 5.0361-.9871 6.7178-2.9613 1.7-1.9925 2.55-4.634 2.55-7.9244v-1.1242h-5.0178m10.063-2.0839v17.521h-5.0452v-4.6614c-1.1517 1.8645-2.5866 3.2447-4.3049 4.1404-1.7183.8774-3.8205 1.3161-6.3065 1.3161-3.1441 0-5.6485-.8774-7.513-2.6323-1.8463-1.7731-2.7694-4.1403-2.7694-7.1017-3e-6-3.4549 1.1516-6.0597 3.4549-7.8146 2.3215-1.7549 5.7764-2.6323 10.365-2.6323h7.0743v-.4936c-2.4e-5-2.3215-.76778-4.1129-2.3033-5.3742-1.5172-1.2796-3.656-1.9194-6.4162-1.9194-1.7549 0-3.464.2102-5.1275.6306-1.6635.4205-3.263 1.0511-4.7985 1.892v-4.6614c1.8463-.7128 3.6377-1.243 5.3743-1.5903 1.7366-.3656 3.4275-.5484 5.0727-.5484 4.442 0 7.7598 1.1517 9.9534 3.4549 2.1936 2.3033 3.2903 5.7947 3.2904 10.474"/>
   <path d="m-1.6694 2191.3v4.7162c-1.4259-.786-2.8608-1.371-4.3049-1.7549-1.4258-.4021-2.87-.6032-4.3323-.6032-3.2721 0-5.813 1.042-7.6227 3.1258-1.8097 2.0657-2.7146 4.9722-2.7146 8.7195-8e-6 3.7474.90484 6.663 2.7146 8.7469 1.8097 2.0656 4.3506 3.0985 7.6227 3.0984 1.4624 1e-4 2.9065-.1919 4.3323-.5758 1.4441-.4021 2.879-.9962 4.3049-1.7823v4.6614c-1.4076.6581-2.87 1.1516-4.3872 1.4807-1.499.329-3.0985.4935-4.7985.4935-4.6248 0-8.2991-1.4532-11.023-4.3597-2.7237-2.9065-4.0855-6.8275-4.0855-11.763-3e-6-5.0086 1.371-8.9479 4.113-11.818 2.7602-2.8699 6.535-4.3049 11.324-4.3049 1.5538 0 3.071.1645 4.5517.4936 1.4806.3107 2.9156.786 4.3049 1.4258"/>
   <path d="m4.1107 2178.1h5.0727v25.199l15.053-13.244h6.4436l-16.287 14.368 16.973 16.342h-6.5807l-15.602-14.999v14.999h-5.0727v-42.665"/>
   <path d="m60.288 2204.2v2.4678h-23.197c.21935 3.4731 1.2613 6.1237 3.1259 7.9517 1.8828 1.8097 4.4968 2.7146 7.842 2.7145 1.9376 1e-4 3.8113-.2376 5.621-.7129 1.828-.4752 3.6377-1.1882 5.4291-2.1387v4.771c-1.8097.7678-3.6651 1.3527-5.5662 1.7549-1.9011.4022-3.8296.6032-5.7856.6032-4.899 0-8.7835-1.4258-11.653-4.2775-2.8517-2.8516-4.2775-6.7086-4.2775-11.571-3e-6-5.0269 1.3527-9.0119 4.0581-11.955 2.7237-2.9613 6.3888-4.442 10.995-4.442 4.1312 0 7.3942 1.3345 9.7889 4.0033 2.4129 2.6506 3.6194 6.2608 3.6194 10.831m-5.0452-1.4807c-.03659-2.7602-.81348-4.9629-2.3307-6.6081-1.499-1.6452-3.4915-2.4678-5.9775-2.4678-2.8151 0-5.0727.7952-6.7727 2.3855-1.6818 1.5904-2.6506 3.8296-2.9065 6.7178l17.987-.027"/>
   <path d="m83.507 2194.8c-.5667-.329-1.1882-.5666-1.8645-.7129-.6581-.1645-1.3893-.2467-2.1936-.2468-2.8517 1e-4-5.0452.9323-6.5807 2.7969-1.5172 1.8462-2.2758 4.506-2.2758 7.9791v16.178h-5.0727v-30.71h5.0727v4.7711c1.0602-1.8645 2.4403-3.2447 4.1404-4.1404 1.7-.914 3.7656-1.371 6.1969-1.371.3473 0 .73117.027 1.1516.082.42041.037.88655.1005 1.3984.1919l.02742 5.1823"/>
   <path d="m108.43 2191v4.771c-1.4258-.7311-2.9065-1.2795-4.442-1.6452-1.5355-.3655-3.1259-.5483-4.771-.5484-2.5044 1e-4-4.3872.3839-5.6485 1.1517-1.243.7677-1.8646 1.9194-1.8645 3.4549-9e-6 1.1699.44785 2.093 1.3436 2.7694.8957.658 2.6963 1.2887 5.4017 1.8919l1.7274.3839c3.5828.7678 6.1237 1.8554 7.6227 3.2629 1.5172 1.3893 2.2758 3.3361 2.2758 5.8405-3e-5 2.8516-1.1334 5.1092-3.4 6.7726-2.2484 1.6635-5.3469 2.4952-9.2953 2.4952-1.6452 0-3.3635-.1645-5.1549-.4935-1.7732-.3108-3.6468-.7861-5.621-1.4259v-5.2097c1.8645.9688 3.7017 1.7 5.5114 2.1936 1.8097.4753 3.6011.7129 5.3743.7129 2.3764 0 4.2043-.4022 5.484-1.2065 1.2796-.8226 1.9194-1.9742 1.9194-3.4549-2e-5-1.3709-.46615-2.422-1.3984-3.1532-.91401-.7312-2.9339-1.435-6.0598-2.1114l-1.7549-.4113c-3.1259-.658-5.3834-1.6634-6.7727-3.0161-1.3893-1.371-2.0839-3.2447-2.0839-5.6211-3e-6-2.8882 1.0237-5.1183 3.071-6.6904 2.0473-1.572 4.9538-2.3581 8.7195-2.3581 1.8645 0 3.6194.1371 5.2646.4113 1.6452.2742 3.1624.6855 4.5517 1.2339"/>
   <path d="m120.88 2216.2v16.287h-5.0726v-42.391h5.0726v4.6614c1.0602-1.828 2.3946-3.1807 4.0033-4.0581 1.6269-.8957 3.5646-1.3436 5.813-1.3436 3.7291 0 6.7544 1.4807 9.0759 4.442 2.3398 2.9614 3.5097 6.855 3.5097 11.681-3e-5 4.8259-1.1699 8.7195-3.5097 11.681-2.3216 2.9614-5.3469 4.442-9.0759 4.442-2.2484 0-4.1861-.4387-5.813-1.3161-1.6086-.8957-2.9431-2.2576-4.0033-4.0856m17.165-10.721c-3e-5-3.7108-.76778-6.6173-2.3033-8.7195-1.5172-2.1204-3.6103-3.1806-6.2791-3.1807-2.6689 1e-4-4.7711 1.0603-6.3066 3.1807-1.5172 2.1022-2.2758 5.0087-2.2758 8.7195-1e-5 3.7108.7586 6.6265 2.2758 8.7469 1.5355 2.1022 3.6377 3.1533 6.3066 3.1533 2.6688 0 4.7619-1.0511 6.2791-3.1533 1.5355-2.1204 2.3032-5.0361 2.3033-8.7469"/>
   <path d="m162.74 2205.3c-4.0764 0-6.9007.4662-8.4727 1.3984-1.5721.9323-2.3581 2.5227-2.3581 4.7711-1e-5 1.7914.58495 3.2172 1.7549 4.2775 1.1882 1.0419 2.7968 1.5629 4.8259 1.5629 2.7968 0 5.0361-.9871 6.7178-2.9613 1.7-1.9925 2.55-4.634 2.55-7.9244v-1.1242h-5.0178m10.063-2.0839v17.521h-5.0452v-4.6614c-1.1516 1.8645-2.5866 3.2447-4.3049 4.1404-1.7183.8774-3.8205 1.3161-6.3065 1.3161-3.1442 0-5.6485-.8774-7.513-2.6323-1.8463-1.7731-2.7694-4.1403-2.7694-7.1017-1e-5-3.4549 1.1516-6.0597 3.4549-7.8146 2.3215-1.7549 5.7764-2.6323 10.365-2.6323h7.0743v-.4936c-2e-5-2.3215-.76778-4.1129-2.3033-5.3742-1.5172-1.2796-3.656-1.9194-6.4162-1.9194-1.7549 0-3.464.2102-5.1275.6306-1.6635.4205-3.263 1.0511-4.7984 1.892v-4.6614c1.8462-.7128 3.6377-1.243 5.3743-1.5903 1.7366-.3656 3.4274-.5484 5.0726-.5484 4.442 0 7.7598 1.1517 9.9534 3.4549 2.1936 2.3033 3.2904 5.7947 3.2904 10.474"/>
   <path d="m201.75 2191.3v4.7162c-1.4258-.786-2.8608-1.371-4.3049-1.7549-1.4258-.4021-2.87-.6032-4.3323-.6032-3.2721 0-5.813 1.042-7.6227 3.1258-1.8097 2.0657-2.7146 4.9722-2.7146 8.7195-1e-5 3.7474.90484 6.663 2.7146 8.7469 1.8097 2.0656 4.3506 3.0985 7.6227 3.0984 1.4624 1e-4 2.9065-.1919 4.3323-.5758 1.4441-.4021 2.879-.9962 4.3049-1.7823v4.6614c-1.4076.6581-2.87 1.1516-4.3872 1.4807-1.499.329-3.0984.4935-4.7985.4935-4.6248 0-8.299-1.4532-11.023-4.3597-2.7237-2.9065-4.0856-6.8275-4.0855-11.763-1e-5-5.0086 1.371-8.9479 4.113-11.818 2.7602-2.8699 6.535-4.3049 11.324-4.3049 1.5538 0 3.071.1645 4.5517.4936 1.4806.3107 2.9156.786 4.3049 1.4258"/>
   <path d="m233.99 2204.2v2.4678h-23.197c.21935 3.4731 1.2613 6.1237 3.1258 7.9517 1.8828 1.8097 4.4968 2.7146 7.842 2.7145 1.9376 1e-4 3.8113-.2376 5.621-.7129 1.828-.4752 3.6377-1.1882 5.4291-2.1387v4.771c-1.8097.7678-3.6651 1.3527-5.5662 1.7549-1.9011.4022-3.8296.6032-5.7856.6032-4.899 0-8.7835-1.4258-11.653-4.2775-2.8517-2.8516-4.2775-6.7086-4.2775-11.571 0-5.0269 1.3527-9.0119 4.0581-11.955 2.7237-2.9613 6.3888-4.442 10.995-4.442 4.1312 0 7.3942 1.3345 9.7888 4.0033 2.4129 2.6506 3.6194 6.2608 3.6194 10.831m-5.0452-1.4807c-.0366-2.7602-.81347-4.9629-2.3307-6.6081-1.499-1.6452-3.4915-2.4678-5.9775-2.4678-2.8151 0-5.0727.7952-6.7727 2.3855-1.6818 1.5904-2.6506 3.8296-2.9065 6.7178l17.987-.027"/>
  </g>
  <g transform="matrix(1.4005 0 0 1.4005 -283.99 9168.3)" fill="#fefefe">
   <path d="m602.75-6011.9v62.188h14.906v-29.094l21.25 29.094h18.781l-25.219-31.688 22.344-30.469h-17.25l-19.906 29.219v-29.25z"/>
   <path d="m399.78-6032.8v83.125h14.969v-31.656c0-12.838 3.9937-19.062 12.594-19.062 8.7248 0 12.719 5.8505 12.719 18.938v31.781h14.938v-35.156c0-7.4783-.7554-11.949-2.625-15.938-3.7392-7.7276-12.838-13.344-21.562-13.344-6.2319 0-11.451 2.106-16.062 6.3437v-25.031z"/>
   <path d="m372.31-6014.1c-11.591 0-20.812 8.5935-20.812 19.312 0 5.3594 1.8858 9.8535 5.625 13.219 3.2406 2.8667 4.6143 3.4756 11.719 5.8438 8.3508 2.742 10.594 4.5105 10.594 8.125s-2.8862 6.3437-6.75 6.3437c-4.3624 0-6.7231-2.36-8.2188-7.9687h-15.219c.4986 5.1102 1.0043 7.1024 2.5 10.094 3.4899 6.8552 11.337 11.594 19.812 11.594 12.588 0 22.812-9.8472 22.812-21.812 0-5.6088-1.8553-9.9785-5.8438-13.344-2.4927-2.1188-5.9846-3.5988-11.469-5.3437l-4.25-1.375c-4.8609-1.6203-6.3438-2.8833-6.3438-5.75 0-2.9914 2.4782-5.2188 5.7188-5.2188 3.116 0 5.2518 1.8539 5.875 5.3438h14.688c-.4986-10.844-9.3447-19.062-20.438-19.062z"/>
   <path d="m491.97-6014.1c-17.699 0-31.156 14.21-31.156 32.906 0 19.319 12.832 33.656 30.281 33.656 7.7276 0 17.201-4.2347 21.812-9.7188v7.5938h13.719v-62.312h-13.719v7.8437c-4.6116-5.858-13.085-9.9687-20.938-9.9687zm1.2812 13.719c.32212-.017.64157 0 .96875 0 10.594 0 18.312 8.2197 18.312 19.313 0 11.467-7.7182 19.812-18.312 19.812-10.345 0-18.438-8.4684-18.438-19.187 0-10.988 7.483-19.423 17.469-19.938z"/>
   <path d="m565.63-6014.1c-18.197 0-33.031 14.834-33.031 33.031 0 18.447 14.959 33.531 33.156 33.531 5.9827 0 12.703-2.0094 17.938-5.25 6.3566-3.9885 10.227-8.9614 13.219-17.188h-16.812c-3.4898 5.7334-8.235 8.7187-13.844 8.7187-10.844 0-18.688-8.345-18.688-19.562 0-11.342 7.5928-19.562 18.062-19.562 6.6058 0 10.73 2.6126 14.469 9.0938h16.812c-1.7449-5.4841-2.852-7.4785-5.7187-10.844-6.3566-7.6029-15.716-11.969-25.562-11.969z"/>
  </g>
  <g fill="#00be00">
   <path d="m192.2 747.28v21.008h11.686c.94981-7.0477 4.3349-13.356 9.3224-18.163v-2.8449z"/>
   <path d="m192.2 775.29v21.008h21.008v-1.7944c-.0479-.042-.0831-.0887-.13124-.13123a4.6923 4.6923 0 0 1 -.0437 -.0437c-5.4874-4.9385-8.6293-11.601-9.2786-19.039h-11.555z"/>
   <path d="m192.2 803.3v21.008h12.211c-2.2468-4.5183-3.2271-8.4153-3.939-15.712-.26362-2.6061-.27429-2.5684-.43674-5.3125-3.0881-.005-3.8924.012-7.8353.0167z"/>
   <rect x="332.25" y="719.27" width="21.008" height="21.008"/>
   <rect x="304.24" y="691.26" width="21.008" height="21.008"/>
   <rect x="136.17" y="719.27" width="21.008" height="21.008"/>
   <rect x="248.21" y="635.24" width="21.008" height="21.008"/>
   <rect x="276.22" y="663.25" width="21.008" height="21.008"/>
   <rect x="304.24" y="719.27" width="21.008" height="21.008"/>
   <rect x="276.22" y="691.26" width="21.008" height="21.008"/>
   <rect x="248.21" y="663.25" width="21.008" height="21.008"/>
   <rect x="220.2" y="635.24" width="21.008" height="21.008"/>
   <rect x="192.19" y="663.25" width="21.008" height="21.008"/>
   <rect x="164.18" y="691.26" width="21.008" height="21.008"/>
   <rect x="164.18" y="747.28" width="21.008" height="21.008"/>
   <rect x="164.18" y="775.29" width="21.008" height="21.008"/>
   <rect x="164.18" y="803.3" width="21.008" height="21.008"/>
   <rect x="164.18" y="719.27" width="21.008" height="21.008"/>
   <rect x="192.19" y="691.26" width="21.008" height="21.008"/>
   <rect x="220.2" y="663.25" width="21.008" height="21.008"/>
   <rect x="220.2" y="691.26" width="21.008" height="21.008"/>
   <rect x="192.19" y="719.27" width="21.008" height="21.008"/>
   <rect x="248.21" y="691.26" width="21.008" height="21.008"/>
   <rect x="220.2" y="719.27" width="21.008" height="21.008"/>
   <rect x="248.21" y="719.27" width="21.008" height="21.008"/>
   <rect x="304.24" y="775.29" width="21.008" height="21.008"/>
   <rect x="304.24" y="803.3" width="21.008" height="21.008"/>
  </g>
 </g>
</svg>
